<mxfile host="app.diagrams.net" agent="Mozilla/5.0 (Windows NT 10.0; Win64; x64) AppleWebKit/537.36 (KHTML, like Gecko) Chrome/136.0.0.0 Safari/537.36 Edg/136.0.0.0" version="27.0.6">
  <diagram name="第 1 页" id="YZwBEZweHeoKS15D-UXK">
    <mxGraphModel dx="994" dy="1709" grid="1" gridSize="10" guides="1" tooltips="1" connect="1" arrows="1" fold="1" page="1" pageScale="1" pageWidth="827" pageHeight="1169" math="0" shadow="0">
      <root>
        <mxCell id="0" />
        <mxCell id="1" parent="0" />
        <mxCell id="WBBpHmCB1Vfj12WouCdX-4" style="edgeStyle=orthogonalEdgeStyle;rounded=0;orthogonalLoop=1;jettySize=auto;html=1;" edge="1" parent="1" source="WBBpHmCB1Vfj12WouCdX-1" target="WBBpHmCB1Vfj12WouCdX-5">
          <mxGeometry relative="1" as="geometry">
            <mxPoint x="230" y="90" as="targetPoint" />
          </mxGeometry>
        </mxCell>
        <mxCell id="WBBpHmCB1Vfj12WouCdX-12" value="" style="edgeStyle=orthogonalEdgeStyle;rounded=0;orthogonalLoop=1;jettySize=auto;html=1;" edge="1" parent="1" source="WBBpHmCB1Vfj12WouCdX-1" target="WBBpHmCB1Vfj12WouCdX-11">
          <mxGeometry relative="1" as="geometry" />
        </mxCell>
        <mxCell id="WBBpHmCB1Vfj12WouCdX-1" value="工廠被客訴, 良率差, 要結束合作關係" style="rounded=0;whiteSpace=wrap;html=1;" vertex="1" parent="1">
          <mxGeometry x="70" y="160" width="120" height="60" as="geometry" />
        </mxCell>
        <mxCell id="WBBpHmCB1Vfj12WouCdX-14" value="" style="edgeStyle=orthogonalEdgeStyle;rounded=0;orthogonalLoop=1;jettySize=auto;html=1;" edge="1" parent="1" source="WBBpHmCB1Vfj12WouCdX-5" target="WBBpHmCB1Vfj12WouCdX-13">
          <mxGeometry relative="1" as="geometry" />
        </mxCell>
        <mxCell id="WBBpHmCB1Vfj12WouCdX-5" value="續待, 按兵不動" style="rounded=0;whiteSpace=wrap;html=1;fillColor=#fff2cc;strokeColor=#d6b656;" vertex="1" parent="1">
          <mxGeometry x="70" y="40" width="120" height="60" as="geometry" />
        </mxCell>
        <mxCell id="WBBpHmCB1Vfj12WouCdX-39" value="" style="edgeStyle=orthogonalEdgeStyle;rounded=0;orthogonalLoop=1;jettySize=auto;html=1;" edge="1" parent="1" source="WBBpHmCB1Vfj12WouCdX-11" target="WBBpHmCB1Vfj12WouCdX-38">
          <mxGeometry relative="1" as="geometry" />
        </mxCell>
        <mxCell id="WBBpHmCB1Vfj12WouCdX-11" value="主動應徵外面工作" style="rounded=0;whiteSpace=wrap;html=1;fillColor=#fff2cc;strokeColor=#d6b656;" vertex="1" parent="1">
          <mxGeometry x="70" y="330" width="120" height="60" as="geometry" />
        </mxCell>
        <mxCell id="WBBpHmCB1Vfj12WouCdX-16" value="" style="edgeStyle=orthogonalEdgeStyle;rounded=0;orthogonalLoop=1;jettySize=auto;html=1;" edge="1" parent="1" source="WBBpHmCB1Vfj12WouCdX-13" target="WBBpHmCB1Vfj12WouCdX-15">
          <mxGeometry relative="1" as="geometry" />
        </mxCell>
        <mxCell id="WBBpHmCB1Vfj12WouCdX-22" value="" style="edgeStyle=orthogonalEdgeStyle;rounded=0;orthogonalLoop=1;jettySize=auto;html=1;" edge="1" parent="1" source="WBBpHmCB1Vfj12WouCdX-13" target="WBBpHmCB1Vfj12WouCdX-21">
          <mxGeometry relative="1" as="geometry" />
        </mxCell>
        <mxCell id="WBBpHmCB1Vfj12WouCdX-13" value="有案子就坐, 沒案子就study" style="whiteSpace=wrap;html=1;rounded=0;" vertex="1" parent="1">
          <mxGeometry x="270" y="40" width="120" height="60" as="geometry" />
        </mxCell>
        <mxCell id="WBBpHmCB1Vfj12WouCdX-18" value="" style="edgeStyle=orthogonalEdgeStyle;rounded=0;orthogonalLoop=1;jettySize=auto;html=1;" edge="1" parent="1" source="WBBpHmCB1Vfj12WouCdX-15" target="WBBpHmCB1Vfj12WouCdX-17">
          <mxGeometry relative="1" as="geometry" />
        </mxCell>
        <mxCell id="WBBpHmCB1Vfj12WouCdX-15" value="持續沒案子, 都寫study" style="whiteSpace=wrap;html=1;rounded=0;" vertex="1" parent="1">
          <mxGeometry x="470" y="40" width="120" height="60" as="geometry" />
        </mxCell>
        <mxCell id="WBBpHmCB1Vfj12WouCdX-26" value="" style="edgeStyle=orthogonalEdgeStyle;rounded=0;orthogonalLoop=1;jettySize=auto;html=1;" edge="1" parent="1" source="WBBpHmCB1Vfj12WouCdX-17" target="WBBpHmCB1Vfj12WouCdX-25">
          <mxGeometry relative="1" as="geometry" />
        </mxCell>
        <mxCell id="WBBpHmCB1Vfj12WouCdX-27" style="edgeStyle=orthogonalEdgeStyle;rounded=0;orthogonalLoop=1;jettySize=auto;html=1;exitX=1;exitY=0.5;exitDx=0;exitDy=0;entryX=0;entryY=0.5;entryDx=0;entryDy=0;" edge="1" parent="1" source="WBBpHmCB1Vfj12WouCdX-17" target="WBBpHmCB1Vfj12WouCdX-19">
          <mxGeometry relative="1" as="geometry" />
        </mxCell>
        <mxCell id="WBBpHmCB1Vfj12WouCdX-17" value="人力review, 一併檢討" style="whiteSpace=wrap;html=1;rounded=0;" vertex="1" parent="1">
          <mxGeometry x="470" y="160" width="120" height="60" as="geometry" />
        </mxCell>
        <mxCell id="WBBpHmCB1Vfj12WouCdX-19" value="內轉,公司server單位&lt;div&gt;不同軟體, 重新學,&amp;nbsp;&lt;/div&gt;&lt;div&gt;保留福利和假&lt;/div&gt;" style="whiteSpace=wrap;html=1;rounded=0;fillColor=#dae8fc;strokeColor=#6c8ebf;" vertex="1" parent="1">
          <mxGeometry x="640" y="160" width="120" height="60" as="geometry" />
        </mxCell>
        <mxCell id="WBBpHmCB1Vfj12WouCdX-31" value="" style="edgeStyle=orthogonalEdgeStyle;rounded=0;orthogonalLoop=1;jettySize=auto;html=1;" edge="1" parent="1" source="WBBpHmCB1Vfj12WouCdX-21" target="WBBpHmCB1Vfj12WouCdX-30">
          <mxGeometry relative="1" as="geometry" />
        </mxCell>
        <mxCell id="WBBpHmCB1Vfj12WouCdX-21" value="新案子,進來,危機解除" style="whiteSpace=wrap;html=1;rounded=0;" vertex="1" parent="1">
          <mxGeometry x="270" y="-80" width="120" height="60" as="geometry" />
        </mxCell>
        <mxCell id="WBBpHmCB1Vfj12WouCdX-36" style="edgeStyle=orthogonalEdgeStyle;rounded=0;orthogonalLoop=1;jettySize=auto;html=1;" edge="1" parent="1" source="WBBpHmCB1Vfj12WouCdX-25" target="WBBpHmCB1Vfj12WouCdX-37">
          <mxGeometry relative="1" as="geometry">
            <mxPoint x="330" y="330" as="targetPoint" />
          </mxGeometry>
        </mxCell>
        <mxCell id="WBBpHmCB1Vfj12WouCdX-25" value="被資遣" style="whiteSpace=wrap;html=1;rounded=0;fillColor=#dae8fc;strokeColor=#6c8ebf;" vertex="1" parent="1">
          <mxGeometry x="270" y="160" width="120" height="60" as="geometry" />
        </mxCell>
        <mxCell id="WBBpHmCB1Vfj12WouCdX-30" value="繼續每天5.下班,度過2025危機" style="whiteSpace=wrap;html=1;rounded=0;fillColor=#dae8fc;strokeColor=#6c8ebf;" vertex="1" parent="1">
          <mxGeometry x="470" y="-80" width="120" height="60" as="geometry" />
        </mxCell>
        <mxCell id="WBBpHmCB1Vfj12WouCdX-40" style="edgeStyle=orthogonalEdgeStyle;rounded=0;orthogonalLoop=1;jettySize=auto;html=1;" edge="1" parent="1" source="WBBpHmCB1Vfj12WouCdX-37">
          <mxGeometry relative="1" as="geometry">
            <mxPoint x="330" y="480" as="targetPoint" />
          </mxGeometry>
        </mxCell>
        <mxCell id="WBBpHmCB1Vfj12WouCdX-37" value="&lt;div&gt;可能是7月初,多爽2個月&lt;/div&gt;主動應徵外面工作" style="rounded=0;whiteSpace=wrap;html=1;" vertex="1" parent="1">
          <mxGeometry x="235" y="330" width="190" height="60" as="geometry" />
        </mxCell>
        <mxCell id="WBBpHmCB1Vfj12WouCdX-38" value="和碩,緯穎,華碩server&lt;div&gt;缺很多, 表示這是現在正夯的賽道&lt;/div&gt;" style="whiteSpace=wrap;html=1;rounded=0;" vertex="1" parent="1">
          <mxGeometry x="55" y="480" width="150" height="60" as="geometry" />
        </mxCell>
        <mxCell id="WBBpHmCB1Vfj12WouCdX-42" value="" style="whiteSpace=wrap;html=1;rounded=0;" vertex="1" parent="1">
          <mxGeometry x="270" y="620" width="120" height="60" as="geometry" />
        </mxCell>
        <mxCell id="WBBpHmCB1Vfj12WouCdX-49" style="edgeStyle=orthogonalEdgeStyle;rounded=0;orthogonalLoop=1;jettySize=auto;html=1;exitX=0.5;exitY=1;exitDx=0;exitDy=0;entryX=0.5;entryY=0;entryDx=0;entryDy=0;" edge="1" parent="1" source="WBBpHmCB1Vfj12WouCdX-46" target="WBBpHmCB1Vfj12WouCdX-42">
          <mxGeometry relative="1" as="geometry" />
        </mxCell>
        <mxCell id="WBBpHmCB1Vfj12WouCdX-50" style="edgeStyle=orthogonalEdgeStyle;rounded=0;orthogonalLoop=1;jettySize=auto;html=1;" edge="1" parent="1" source="WBBpHmCB1Vfj12WouCdX-46">
          <mxGeometry relative="1" as="geometry">
            <mxPoint x="430" y="520" as="targetPoint" />
          </mxGeometry>
        </mxCell>
        <mxCell id="WBBpHmCB1Vfj12WouCdX-46" value="有好缺?" style="rhombus;whiteSpace=wrap;html=1;" vertex="1" parent="1">
          <mxGeometry x="290" y="480" width="80" height="80" as="geometry" />
        </mxCell>
      </root>
    </mxGraphModel>
  </diagram>
</mxfile>
